<mxfile host="app.diagrams.net" modified="2022-01-11T18:21:23.982Z" agent="5.0 (Windows NT 10.0; Win64; x64) AppleWebKit/537.36 (KHTML, like Gecko) Chrome/97.0.4692.71 Safari/537.36" etag="6LOVt8lx1EqC2V-3GCXm" version="15.9.5" type="github">
  <diagram id="I3TwFxU655ddm2MU_N85" name="Page-1">
    <mxGraphModel dx="2188" dy="3560" grid="1" gridSize="10" guides="1" tooltips="1" connect="1" arrows="1" fold="1" page="1" pageScale="1" pageWidth="827" pageHeight="1169" math="0" shadow="0">
      <root>
        <mxCell id="0" />
        <mxCell id="1" parent="0" />
        <mxCell id="nDz2XcoAhpXYC0VE0fNE-1" value="&amp;nbsp;-role&amp;nbsp;" style="edgeStyle=orthogonalEdgeStyle;orthogonalLoop=1;jettySize=auto;html=1;endArrow=open;endFill=0;entryX=0.5;entryY=0;entryDx=0;entryDy=0;exitX=1;exitY=0.25;exitDx=0;exitDy=0;" parent="1" source="nDz2XcoAhpXYC0VE0fNE-22" target="nDz2XcoAhpXYC0VE0fNE-2" edge="1">
          <mxGeometry relative="1" as="geometry">
            <mxPoint x="2020" y="-580" as="sourcePoint" />
            <Array as="points">
              <mxPoint x="1110" y="-965" />
            </Array>
          </mxGeometry>
        </mxCell>
        <mxCell id="nDz2XcoAhpXYC0VE0fNE-2" value="&lt;p style=&quot;margin: 0px ; margin-top: 4px ; text-align: center&quot;&gt;&lt;b&gt;UserRole&lt;/b&gt;&lt;/p&gt;&lt;p style=&quot;margin: 0px ; margin-top: 4px ; text-align: center&quot;&gt;&lt;b&gt;&lt;font style=&quot;font-size: 10px&quot;&gt;&amp;lt;&amp;lt;enum&amp;gt;&amp;gt;&lt;/font&gt;&lt;/b&gt;&lt;/p&gt;&lt;hr size=&quot;1&quot;&gt;&lt;p style=&quot;margin: 0px ; margin-left: 4px&quot;&gt;ADMIN&lt;/p&gt;&lt;p style=&quot;margin: 0px ; margin-left: 4px&quot;&gt;USER&lt;/p&gt;&lt;p style=&quot;margin: 0px ; margin-left: 4px&quot;&gt;UNDEFINED&lt;/p&gt;" style="verticalAlign=top;align=left;overflow=fill;fontSize=12;fontFamily=Helvetica;html=1;spacingLeft=0;spacingRight=0;spacing=2;" parent="1" vertex="1">
          <mxGeometry x="1030" y="-950" width="160" height="100" as="geometry" />
        </mxCell>
        <mxCell id="nDz2XcoAhpXYC0VE0fNE-3" style="edgeStyle=orthogonalEdgeStyle;orthogonalLoop=1;jettySize=auto;html=1;entryX=1;entryY=0.25;entryDx=0;entryDy=0;endArrow=block;endFill=0;dashed=1;" parent="1" source="nDz2XcoAhpXYC0VE0fNE-4" target="nDz2XcoAhpXYC0VE0fNE-7" edge="1">
          <mxGeometry relative="1" as="geometry" />
        </mxCell>
        <mxCell id="nDz2XcoAhpXYC0VE0fNE-4" value="&lt;p style=&quot;margin: 0px ; margin-top: 4px ; text-align: center&quot;&gt;&lt;b&gt;Credentials&lt;/b&gt;&lt;/p&gt;&lt;hr size=&quot;1&quot;&gt;&lt;p style=&quot;margin: 0px ; margin-left: 4px&quot;&gt;&lt;span&gt;- username: string&lt;/span&gt;&lt;br&gt;&lt;/p&gt;&lt;p style=&quot;margin: 0px ; margin-left: 4px&quot;&gt;- password: string&lt;/p&gt;&lt;hr size=&quot;1&quot;&gt;&lt;p style=&quot;margin: 0px ; margin-left: 4px&quot;&gt;+ Credentials(): cnstr&lt;/p&gt;&lt;p style=&quot;margin: 0px ; margin-left: 4px&quot;&gt;+ Credentials(id: int, role: Role, username: string, password: string): cnstr&lt;/p&gt;&lt;p style=&quot;margin: 0px ; margin-left: 4px&quot;&gt;&lt;span&gt;+ setUsername(new: string): bool&lt;/span&gt;&lt;br&gt;&lt;/p&gt;&lt;p style=&quot;margin: 0px ; margin-left: 4px&quot;&gt;+ setPassword(new: string): bool&lt;br&gt;&lt;/p&gt;" style="verticalAlign=top;align=left;overflow=fill;fontSize=12;fontFamily=Helvetica;html=1;spacingLeft=0;spacingRight=0;spacing=2;" parent="1" vertex="1">
          <mxGeometry x="1560" y="-860" width="420" height="160" as="geometry" />
        </mxCell>
        <mxCell id="nDz2XcoAhpXYC0VE0fNE-5" style="edgeStyle=orthogonalEdgeStyle;orthogonalLoop=1;jettySize=auto;html=1;entryX=1;entryY=0.25;entryDx=0;entryDy=0;dashed=1;endArrow=block;endFill=0;" parent="1" source="nDz2XcoAhpXYC0VE0fNE-6" target="nDz2XcoAhpXYC0VE0fNE-10" edge="1">
          <mxGeometry relative="1" as="geometry" />
        </mxCell>
        <mxCell id="nDz2XcoAhpXYC0VE0fNE-6" value="&lt;p style=&quot;margin: 0px ; margin-top: 4px ; text-align: center&quot;&gt;&lt;b&gt;PersonalData&lt;/b&gt;&lt;/p&gt;&lt;hr size=&quot;1&quot;&gt;&lt;p style=&quot;margin: 0px ; margin-left: 4px&quot;&gt;&lt;span&gt;- fi&lt;/span&gt;&lt;span&gt;rst_name: string&lt;/span&gt;&lt;/p&gt;&lt;p style=&quot;margin: 0px 0px 0px 4px&quot;&gt;- last_name: string&lt;/p&gt;&lt;hr size=&quot;1&quot;&gt;&lt;p style=&quot;margin: 0px ; margin-left: 4px&quot;&gt;+ PersonalData(): cnstr&lt;/p&gt;&lt;p style=&quot;margin: 0px ; margin-left: 4px&quot;&gt;+ PersonalData(fn: string, ln: string&lt;span&gt;): cnstr&lt;/span&gt;&lt;/p&gt;&lt;p style=&quot;margin: 0px ; margin-left: 4px&quot;&gt;&lt;span&gt;+ setFirstname(new: string): bool&lt;/span&gt;&lt;br&gt;&lt;/p&gt;&lt;p style=&quot;margin: 0px ; margin-left: 4px&quot;&gt;&lt;span&gt;+ setLastname(new: string): bool&lt;/span&gt;&lt;/p&gt;&lt;p style=&quot;margin: 0px ; margin-left: 4px&quot;&gt;&lt;span&gt;&lt;br&gt;&lt;/span&gt;&lt;/p&gt;" style="verticalAlign=top;align=left;overflow=fill;fontSize=12;fontFamily=Helvetica;html=1;spacingLeft=0;spacingRight=0;spacing=2;" parent="1" vertex="1">
          <mxGeometry x="1050" y="-1570" width="290" height="170" as="geometry" />
        </mxCell>
        <mxCell id="nDz2XcoAhpXYC0VE0fNE-7" value="&lt;p style=&quot;margin: 0px ; margin-top: 4px ; text-align: center&quot;&gt;&lt;b&gt;&lt;font style=&quot;font-size: 10px&quot;&gt;&amp;lt;&amp;lt;Interface&amp;gt;&amp;gt;&lt;/font&gt;&lt;/b&gt;&lt;/p&gt;&lt;p style=&quot;margin: 0px ; margin-top: 4px ; text-align: center&quot;&gt;&lt;b&gt;ICredentials&lt;/b&gt;&lt;/p&gt;&lt;hr size=&quot;1&quot;&gt;&lt;p style=&quot;margin: 0px 0px 0px 4px&quot;&gt;+ getUsername(): string&lt;/p&gt;&lt;p style=&quot;margin: 0px 0px 0px 4px&quot;&gt;+ getPassword(): string&lt;/p&gt;" style="verticalAlign=top;align=left;overflow=fill;fontSize=12;fontFamily=Helvetica;html=1;spacingLeft=0;spacingRight=0;spacing=2;" parent="1" vertex="1">
          <mxGeometry x="1120" y="-770" width="380" height="130" as="geometry" />
        </mxCell>
        <mxCell id="nDz2XcoAhpXYC0VE0fNE-8" style="edgeStyle=orthogonalEdgeStyle;orthogonalLoop=1;jettySize=auto;html=1;entryX=1.005;entryY=0.592;entryDx=0;entryDy=0;entryPerimeter=0;endArrow=block;endFill=0;dashed=1;" parent="1" source="nDz2XcoAhpXYC0VE0fNE-9" target="nDz2XcoAhpXYC0VE0fNE-7" edge="1">
          <mxGeometry relative="1" as="geometry" />
        </mxCell>
        <mxCell id="nDz2XcoAhpXYC0VE0fNE-9" value="&lt;p style=&quot;margin: 0px ; margin-top: 4px ; text-align: center&quot;&gt;&lt;b&gt;NoCredentials&lt;/b&gt;&lt;/p&gt;&lt;hr size=&quot;1&quot;&gt;&lt;p style=&quot;margin: 0px ; margin-left: 4px&quot;&gt;&lt;br&gt;&lt;/p&gt;&lt;hr size=&quot;1&quot;&gt;&lt;p style=&quot;margin: 0px ; margin-left: 4px&quot;&gt;&lt;br&gt;&lt;/p&gt;" style="verticalAlign=top;align=left;overflow=fill;fontSize=12;fontFamily=Helvetica;html=1;spacingLeft=0;spacingRight=0;spacing=2;" parent="1" vertex="1">
          <mxGeometry x="1560" y="-670" width="110" height="100" as="geometry" />
        </mxCell>
        <mxCell id="nDz2XcoAhpXYC0VE0fNE-10" value="&lt;p style=&quot;margin: 0px ; margin-top: 4px ; text-align: center&quot;&gt;&lt;b&gt;&lt;font style=&quot;font-size: 10px&quot;&gt;&amp;lt;&amp;lt;Interface&amp;gt;&amp;gt;&lt;/font&gt;&lt;/b&gt;&lt;/p&gt;&lt;p style=&quot;margin: 0px ; margin-top: 4px ; text-align: center&quot;&gt;&lt;b&gt;IPersonalData&lt;/b&gt;&lt;/p&gt;&lt;hr size=&quot;1&quot;&gt;&lt;p style=&quot;margin: 0px 0px 0px 4px&quot;&gt;+ getFirstname(): string&lt;/p&gt;&lt;p style=&quot;margin: 0px 0px 0px 4px&quot;&gt;+ getLastname(): string&lt;/p&gt;" style="verticalAlign=top;align=left;overflow=fill;fontSize=12;fontFamily=Helvetica;html=1;spacingLeft=0;spacingRight=0;spacing=2;" parent="1" vertex="1">
          <mxGeometry x="780" y="-1450" width="210" height="130" as="geometry" />
        </mxCell>
        <mxCell id="nDz2XcoAhpXYC0VE0fNE-11" style="edgeStyle=orthogonalEdgeStyle;orthogonalLoop=1;jettySize=auto;html=1;dashed=1;endArrow=block;endFill=0;" parent="1" source="nDz2XcoAhpXYC0VE0fNE-12" target="nDz2XcoAhpXYC0VE0fNE-10" edge="1">
          <mxGeometry relative="1" as="geometry" />
        </mxCell>
        <mxCell id="nDz2XcoAhpXYC0VE0fNE-12" value="&lt;p style=&quot;margin: 0px ; margin-top: 4px ; text-align: center&quot;&gt;&lt;b&gt;NoPersonalData&lt;/b&gt;&lt;/p&gt;&lt;hr size=&quot;1&quot;&gt;&lt;p style=&quot;margin: 0px ; margin-left: 4px&quot;&gt;&lt;br&gt;&lt;/p&gt;&lt;hr size=&quot;1&quot;&gt;&lt;p style=&quot;margin: 0px ; margin-left: 4px&quot;&gt;&lt;br&gt;&lt;/p&gt;" style="verticalAlign=top;align=left;overflow=fill;fontSize=12;fontFamily=Helvetica;html=1;spacingLeft=0;spacingRight=0;spacing=2;" parent="1" vertex="1">
          <mxGeometry x="1040" y="-1340" width="110" height="80" as="geometry" />
        </mxCell>
        <mxCell id="nDz2XcoAhpXYC0VE0fNE-18" value="&lt;p style=&quot;margin: 0px ; margin-top: 4px ; text-align: center&quot;&gt;&lt;b&gt;&lt;font style=&quot;font-size: 10px&quot;&gt;&amp;lt;&amp;lt;Interface&amp;gt;&amp;gt;&lt;/font&gt;&lt;/b&gt;&lt;/p&gt;&lt;p style=&quot;margin: 0px ; margin-top: 4px ; text-align: center&quot;&gt;&lt;b&gt;IGameState&lt;/b&gt;&lt;/p&gt;&lt;hr size=&quot;1&quot;&gt;&lt;p style=&quot;margin: 0px 0px 0px 4px&quot;&gt;+ getResourceAmount(rcs: Resource): int&lt;/p&gt;&lt;p style=&quot;margin: 0px 0px 0px 4px&quot;&gt;+ getBuildingLevel(building: Building): int&lt;/p&gt;&lt;p style=&quot;margin: 0px 0px 0px 4px&quot;&gt;+ isUpgradeBought(upg: Upgrade): boolean&lt;/p&gt;" style="verticalAlign=top;align=left;overflow=fill;fontSize=12;fontFamily=Helvetica;html=1;spacingLeft=0;spacingRight=0;spacing=2;" parent="1" vertex="1">
          <mxGeometry x="1200" y="-1229" width="380" height="130" as="geometry" />
        </mxCell>
        <mxCell id="nDz2XcoAhpXYC0VE0fNE-19" value="&lt;p style=&quot;margin: 0px ; margin-top: 4px ; text-align: center&quot;&gt;&lt;b&gt;NoGameState&lt;/b&gt;&lt;/p&gt;&lt;hr size=&quot;1&quot;&gt;&lt;p style=&quot;margin: 0px ; margin-left: 4px&quot;&gt;&lt;br&gt;&lt;/p&gt;&lt;hr size=&quot;1&quot;&gt;&lt;p style=&quot;margin: 0px ; margin-left: 4px&quot;&gt;&lt;br&gt;&lt;/p&gt;" style="verticalAlign=top;align=left;overflow=fill;fontSize=12;fontFamily=Helvetica;html=1;spacingLeft=0;spacingRight=0;spacing=2;" parent="1" vertex="1">
          <mxGeometry x="1680" y="-1214" width="110" height="100" as="geometry" />
        </mxCell>
        <mxCell id="nDz2XcoAhpXYC0VE0fNE-21" style="edgeStyle=orthogonalEdgeStyle;orthogonalLoop=1;jettySize=auto;html=1;endArrow=block;endFill=0;dashed=1;exitX=0;exitY=0.5;exitDx=0;exitDy=0;" parent="1" edge="1" target="nDz2XcoAhpXYC0VE0fNE-18" source="nDz2XcoAhpXYC0VE0fNE-19">
          <mxGeometry relative="1" as="geometry">
            <mxPoint x="1640" y="-1084" as="sourcePoint" />
            <mxPoint x="1581.8999999999987" y="-1157.04" as="targetPoint" />
            <Array as="points">
              <mxPoint x="1680" y="-1157" />
            </Array>
          </mxGeometry>
        </mxCell>
        <mxCell id="nDz2XcoAhpXYC0VE0fNE-22" value="&lt;p style=&quot;margin: 0px ; margin-top: 4px ; text-align: center&quot;&gt;&lt;b&gt;User&lt;/b&gt;&lt;/p&gt;&lt;hr size=&quot;1&quot;&gt;&lt;p style=&quot;margin: 0px ; margin-left: 4px&quot;&gt;- id: int&lt;/p&gt;&lt;hr size=&quot;1&quot;&gt;&lt;p style=&quot;margin: 0px ; margin-left: 4px&quot;&gt;+ User(): cnstr&lt;/p&gt;&lt;p style=&quot;margin: 0px ; margin-left: 4px&quot;&gt;+ User(per: IPersonalData, adr: IAdressData,&lt;/p&gt;&lt;p style=&quot;margin: 0px ; margin-left: 4px&quot;&gt;&lt;span&gt; &lt;span&gt; &lt;/span&gt;&lt;/span&gt;&lt;span style=&quot;white-space: pre&quot;&gt; &lt;/span&gt;con: IContactData, &lt;span&gt;cred: ICredentials)&lt;/span&gt;&lt;/p&gt;&lt;p style=&quot;margin: 0px ; margin-left: 4px&quot;&gt;&lt;span&gt;+ User(user: UserDTO): cstr&lt;br&gt;&lt;/span&gt;&lt;/p&gt;&lt;p style=&quot;margin: 0px ; margin-left: 4px&quot;&gt;+ getContact(): IContactData&lt;/p&gt;&lt;p style=&quot;margin: 0px ; margin-left: 4px&quot;&gt;+ getPersonalInfo(): IPeronalData&lt;/p&gt;&lt;p style=&quot;margin: 0px ; margin-left: 4px&quot;&gt;+ getCredentials(): ICredentials&lt;/p&gt;&lt;p style=&quot;margin: 0px ; margin-left: 4px&quot;&gt;+ getStatistics(): IStatisticsData&lt;/p&gt;&lt;p style=&quot;margin: 0px ; margin-left: 4px&quot;&gt;+ getGameState(): IGameState&lt;br&gt;&lt;/p&gt;&lt;p style=&quot;margin: 0px ; margin-left: 4px&quot;&gt;+ getRole(): UserRole&lt;/p&gt;&lt;p style=&quot;margin: 0px ; margin-left: 4px&quot;&gt;+ getId(): int&lt;br&gt;&lt;/p&gt;&lt;p style=&quot;margin: 0px 0px 0px 4px&quot;&gt;+ setContact(new: IContactData): boolean&lt;/p&gt;&lt;p style=&quot;margin: 0px 0px 0px 4px&quot;&gt;+ setPersonalInfo(new: IPeronalData): boolean&lt;/p&gt;&lt;p style=&quot;margin: 0px 0px 0px 4px&quot;&gt;+ setCredentials(new: ICredentials): boolean&lt;/p&gt;&lt;p style=&quot;margin: 0px 0px 0px 4px&quot;&gt;+ setRole(new: UserRole): boolean&lt;/p&gt;&lt;p style=&quot;margin: 0px 0px 0px 4px&quot;&gt;+ setStatistics(new: IStatistics): boolean&lt;/p&gt;&lt;p style=&quot;margin: 0px 0px 0px 4px&quot;&gt;+ setGameState(new: IGameState): boolean&lt;br&gt;&lt;/p&gt;" style="verticalAlign=top;align=left;overflow=fill;fontSize=12;fontFamily=Helvetica;html=1;spacingLeft=0;spacingRight=0;spacing=2;" parent="1" vertex="1">
          <mxGeometry x="600" y="-1060" width="340" height="380" as="geometry" />
        </mxCell>
        <mxCell id="nDz2XcoAhpXYC0VE0fNE-23" style="edgeStyle=orthogonalEdgeStyle;orthogonalLoop=1;jettySize=auto;html=1;entryX=0;entryY=0.25;entryDx=0;entryDy=0;dashed=1;endArrow=block;endFill=0;" parent="1" source="nDz2XcoAhpXYC0VE0fNE-24" target="nDz2XcoAhpXYC0VE0fNE-25" edge="1">
          <mxGeometry relative="1" as="geometry" />
        </mxCell>
        <mxCell id="nDz2XcoAhpXYC0VE0fNE-24" value="&lt;p style=&quot;margin: 0px ; margin-top: 4px ; text-align: center&quot;&gt;&lt;b&gt;ContactData&lt;/b&gt;&lt;/p&gt;&lt;hr size=&quot;1&quot;&gt;&lt;p style=&quot;margin: 0px ; margin-left: 4px&quot;&gt;&lt;span&gt;- email: string&lt;/span&gt;&lt;/p&gt;&lt;hr size=&quot;1&quot;&gt;&lt;p style=&quot;margin: 0px ; margin-left: 4px&quot;&gt;+Contact(): cnstr&lt;/p&gt;&lt;p style=&quot;margin: 0px ; margin-left: 4px&quot;&gt;+Contact(email: string&lt;span&gt;): cnstr&lt;/span&gt;&lt;/p&gt;&lt;p style=&quot;margin: 0px ; margin-left: 4px&quot;&gt;&lt;span&gt;+ setEmail(new: string): bool&lt;/span&gt;&lt;/p&gt;" style="verticalAlign=top;align=left;overflow=fill;fontSize=12;fontFamily=Helvetica;html=1;spacingLeft=0;spacingRight=0;spacing=2;" parent="1" vertex="1">
          <mxGeometry x="120" y="-1530" width="250" height="140" as="geometry" />
        </mxCell>
        <mxCell id="nDz2XcoAhpXYC0VE0fNE-25" value="&lt;p style=&quot;margin: 0px ; margin-top: 4px ; text-align: center&quot;&gt;&lt;b&gt;&lt;font style=&quot;font-size: 10px&quot;&gt;&amp;lt;&amp;lt;Interface&amp;gt;&amp;gt;&lt;/font&gt;&lt;/b&gt;&lt;/p&gt;&lt;p style=&quot;margin: 0px ; margin-top: 4px ; text-align: center&quot;&gt;&lt;b&gt;IContactData&lt;/b&gt;&lt;/p&gt;&lt;hr size=&quot;1&quot;&gt;&lt;p style=&quot;margin: 0px ; margin-left: 4px&quot;&gt;&lt;span&gt;+ getEmail(): string&lt;/span&gt;&lt;/p&gt;" style="verticalAlign=top;align=left;overflow=fill;fontSize=12;fontFamily=Helvetica;html=1;spacingLeft=0;spacingRight=0;spacing=2;" parent="1" vertex="1">
          <mxGeometry x="410" y="-1440" width="210" height="110" as="geometry" />
        </mxCell>
        <mxCell id="nDz2XcoAhpXYC0VE0fNE-26" style="edgeStyle=orthogonalEdgeStyle;orthogonalLoop=1;jettySize=auto;html=1;entryX=0;entryY=0.5;entryDx=0;entryDy=0;dashed=1;endArrow=block;endFill=0;" parent="1" source="nDz2XcoAhpXYC0VE0fNE-27" target="nDz2XcoAhpXYC0VE0fNE-25" edge="1">
          <mxGeometry relative="1" as="geometry" />
        </mxCell>
        <mxCell id="nDz2XcoAhpXYC0VE0fNE-27" value="&lt;p style=&quot;margin: 0px ; margin-top: 4px ; text-align: center&quot;&gt;&lt;b&gt;NoContactData&lt;/b&gt;&lt;/p&gt;&lt;hr size=&quot;1&quot;&gt;&lt;p style=&quot;margin: 0px ; margin-left: 4px&quot;&gt;&lt;br&gt;&lt;/p&gt;&lt;hr size=&quot;1&quot;&gt;&lt;p style=&quot;margin: 0px ; margin-left: 4px&quot;&gt;&lt;br&gt;&lt;/p&gt;" style="verticalAlign=top;align=left;overflow=fill;fontSize=12;fontFamily=Helvetica;html=1;spacingLeft=0;spacingRight=0;spacing=2;" parent="1" vertex="1">
          <mxGeometry x="210" y="-1320" width="160" height="80" as="geometry" />
        </mxCell>
        <mxCell id="nDz2XcoAhpXYC0VE0fNE-35" style="edgeStyle=orthogonalEdgeStyle;orthogonalLoop=1;jettySize=auto;html=1;entryX=0.5;entryY=1;entryDx=0;entryDy=0;endArrow=open;endFill=0;exitX=0.25;exitY=0;exitDx=0;exitDy=0;" parent="1" source="nDz2XcoAhpXYC0VE0fNE-22" target="nDz2XcoAhpXYC0VE0fNE-25" edge="1">
          <mxGeometry relative="1" as="geometry">
            <mxPoint x="672" y="-1045" as="sourcePoint" />
            <Array as="points">
              <mxPoint x="685" y="-1260" />
              <mxPoint x="515" y="-1260" />
            </Array>
            <mxPoint x="547" y="-1260" as="targetPoint" />
          </mxGeometry>
        </mxCell>
        <mxCell id="nDz2XcoAhpXYC0VE0fNE-36" value="&amp;nbsp;-contact&amp;nbsp;" style="edgeLabel;html=1;align=center;verticalAlign=middle;resizable=0;points=[];" parent="nDz2XcoAhpXYC0VE0fNE-35" vertex="1" connectable="0">
          <mxGeometry x="0.1256" y="3" relative="1" as="geometry">
            <mxPoint as="offset" />
          </mxGeometry>
        </mxCell>
        <mxCell id="nDz2XcoAhpXYC0VE0fNE-37" style="edgeStyle=orthogonalEdgeStyle;orthogonalLoop=1;jettySize=auto;html=1;entryX=0.5;entryY=1;entryDx=0;entryDy=0;endArrow=open;endFill=0;" parent="1" source="nDz2XcoAhpXYC0VE0fNE-22" target="nDz2XcoAhpXYC0VE0fNE-10" edge="1">
          <mxGeometry relative="1" as="geometry">
            <mxPoint x="695" y="-1050" as="sourcePoint" />
            <Array as="points">
              <mxPoint x="770" y="-1270" />
              <mxPoint x="885" y="-1270" />
            </Array>
            <mxPoint x="525" y="-1320" as="targetPoint" />
          </mxGeometry>
        </mxCell>
        <mxCell id="nDz2XcoAhpXYC0VE0fNE-38" value="&amp;nbsp;-personal_data&amp;nbsp;" style="edgeLabel;html=1;align=center;verticalAlign=middle;resizable=0;points=[];" parent="nDz2XcoAhpXYC0VE0fNE-37" vertex="1" connectable="0">
          <mxGeometry x="0.1256" y="3" relative="1" as="geometry">
            <mxPoint as="offset" />
          </mxGeometry>
        </mxCell>
        <mxCell id="nDz2XcoAhpXYC0VE0fNE-39" style="edgeStyle=orthogonalEdgeStyle;orthogonalLoop=1;jettySize=auto;html=1;entryX=0;entryY=0.5;entryDx=0;entryDy=0;endArrow=open;endFill=0;exitX=0.75;exitY=0;exitDx=0;exitDy=0;" parent="1" source="nDz2XcoAhpXYC0VE0fNE-22" target="nDz2XcoAhpXYC0VE0fNE-18" edge="1">
          <mxGeometry relative="1" as="geometry">
            <mxPoint x="705" y="-1040" as="sourcePoint" />
            <Array as="points">
              <mxPoint x="855" y="-1164" />
            </Array>
            <mxPoint x="535" y="-1310" as="targetPoint" />
          </mxGeometry>
        </mxCell>
        <mxCell id="nDz2XcoAhpXYC0VE0fNE-40" value="&amp;nbsp;-game_state&amp;nbsp;" style="edgeLabel;html=1;align=center;verticalAlign=middle;resizable=0;points=[];" parent="nDz2XcoAhpXYC0VE0fNE-39" vertex="1" connectable="0">
          <mxGeometry x="0.1256" y="3" relative="1" as="geometry">
            <mxPoint as="offset" />
          </mxGeometry>
        </mxCell>
        <mxCell id="nDz2XcoAhpXYC0VE0fNE-41" style="edgeStyle=orthogonalEdgeStyle;orthogonalLoop=1;jettySize=auto;html=1;entryX=0;entryY=0.25;entryDx=0;entryDy=0;endArrow=open;endFill=0;exitX=1;exitY=0.75;exitDx=0;exitDy=0;" parent="1" source="nDz2XcoAhpXYC0VE0fNE-22" target="nDz2XcoAhpXYC0VE0fNE-7" edge="1">
          <mxGeometry relative="1" as="geometry">
            <mxPoint x="865" y="-1050" as="sourcePoint" />
            <Array as="points">
              <mxPoint x="1050" y="-775" />
              <mxPoint x="1050" y="-737" />
            </Array>
            <mxPoint x="1210" y="-1154" as="targetPoint" />
          </mxGeometry>
        </mxCell>
        <mxCell id="nDz2XcoAhpXYC0VE0fNE-42" value="&amp;nbsp;-credentials&amp;nbsp;" style="edgeLabel;html=1;align=center;verticalAlign=middle;resizable=0;points=[];" parent="nDz2XcoAhpXYC0VE0fNE-41" vertex="1" connectable="0">
          <mxGeometry x="0.1256" y="3" relative="1" as="geometry">
            <mxPoint as="offset" />
          </mxGeometry>
        </mxCell>
        <mxCell id="nDz2XcoAhpXYC0VE0fNE-82" style="edgeStyle=orthogonalEdgeStyle;orthogonalLoop=1;jettySize=auto;html=1;entryX=0;entryY=0.25;entryDx=0;entryDy=0;dashed=1;endArrow=block;endFill=0;" parent="1" source="nDz2XcoAhpXYC0VE0fNE-83" target="nDz2XcoAhpXYC0VE0fNE-84" edge="1">
          <mxGeometry relative="1" as="geometry" />
        </mxCell>
        <mxCell id="nDz2XcoAhpXYC0VE0fNE-83" value="&lt;p style=&quot;margin: 0px ; margin-top: 4px ; text-align: center&quot;&gt;&lt;b&gt;StatisticsData&lt;/b&gt;&lt;/p&gt;&lt;hr size=&quot;1&quot;&gt;&lt;p style=&quot;margin: 0px ; margin-left: 4px&quot;&gt;&lt;span&gt;- total_clicks: int&lt;/span&gt;&lt;/p&gt;&lt;p style=&quot;margin: 0px ; margin-left: 4px&quot;&gt;&lt;span&gt;- total_earned: int&lt;/span&gt;&lt;/p&gt;&lt;hr size=&quot;1&quot;&gt;&lt;p style=&quot;margin: 0px ; margin-left: 4px&quot;&gt;+ StatisticsData(): cnstr&lt;/p&gt;&lt;p style=&quot;margin: 0px ; margin-left: 4px&quot;&gt;+ StatisticsData(tc: int, te: int&lt;span&gt;): cnstr&lt;/span&gt;&lt;/p&gt;&lt;p style=&quot;margin: 0px ; margin-left: 4px&quot;&gt;&lt;span&gt;+ setTotalEarned(new: int): bool&lt;/span&gt;&lt;/p&gt;&lt;p style=&quot;margin: 0px ; margin-left: 4px&quot;&gt;&lt;span&gt;+ setTotalClicks(new: int): bool&lt;/span&gt;&lt;/p&gt;" style="verticalAlign=top;align=left;overflow=fill;fontSize=12;fontFamily=Helvetica;html=1;spacingLeft=0;spacingRight=0;spacing=2;" parent="1" vertex="1">
          <mxGeometry x="190" y="-1870" width="250" height="140" as="geometry" />
        </mxCell>
        <mxCell id="nDz2XcoAhpXYC0VE0fNE-84" value="&lt;p style=&quot;margin: 0px ; margin-top: 4px ; text-align: center&quot;&gt;&lt;b&gt;&lt;font style=&quot;font-size: 10px&quot;&gt;&amp;lt;&amp;lt;Interface&amp;gt;&amp;gt;&lt;/font&gt;&lt;/b&gt;&lt;/p&gt;&lt;p style=&quot;margin: 0px ; margin-top: 4px ; text-align: center&quot;&gt;&lt;b&gt;IStatisticsData&lt;/b&gt;&lt;/p&gt;&lt;hr size=&quot;1&quot;&gt;&lt;p style=&quot;margin: 0px ; margin-left: 4px&quot;&gt;&lt;span&gt;+ getAmountClicks(): int&lt;/span&gt;&lt;/p&gt;&lt;p style=&quot;margin: 0px ; margin-left: 4px&quot;&gt;&lt;span&gt;+ getTotalEarnings(): int&lt;/span&gt;&lt;/p&gt;" style="verticalAlign=top;align=left;overflow=fill;fontSize=12;fontFamily=Helvetica;html=1;spacingLeft=0;spacingRight=0;spacing=2;" parent="1" vertex="1">
          <mxGeometry x="480" y="-1780" width="210" height="110" as="geometry" />
        </mxCell>
        <mxCell id="nDz2XcoAhpXYC0VE0fNE-85" style="edgeStyle=orthogonalEdgeStyle;orthogonalLoop=1;jettySize=auto;html=1;entryX=0;entryY=0.5;entryDx=0;entryDy=0;dashed=1;endArrow=block;endFill=0;" parent="1" source="nDz2XcoAhpXYC0VE0fNE-86" target="nDz2XcoAhpXYC0VE0fNE-84" edge="1">
          <mxGeometry relative="1" as="geometry" />
        </mxCell>
        <mxCell id="nDz2XcoAhpXYC0VE0fNE-86" value="&lt;p style=&quot;margin: 0px ; margin-top: 4px ; text-align: center&quot;&gt;&lt;b&gt;NoContactData&lt;/b&gt;&lt;/p&gt;&lt;hr size=&quot;1&quot;&gt;&lt;p style=&quot;margin: 0px ; margin-left: 4px&quot;&gt;&lt;br&gt;&lt;/p&gt;&lt;hr size=&quot;1&quot;&gt;&lt;p style=&quot;margin: 0px ; margin-left: 4px&quot;&gt;&lt;br&gt;&lt;/p&gt;" style="verticalAlign=top;align=left;overflow=fill;fontSize=12;fontFamily=Helvetica;html=1;spacingLeft=0;spacingRight=0;spacing=2;" parent="1" vertex="1">
          <mxGeometry x="280" y="-1660" width="160" height="80" as="geometry" />
        </mxCell>
        <mxCell id="nDz2XcoAhpXYC0VE0fNE-87" style="edgeStyle=orthogonalEdgeStyle;orthogonalLoop=1;jettySize=auto;html=1;entryX=0.75;entryY=1;entryDx=0;entryDy=0;endArrow=open;endFill=0;exitX=0.355;exitY=0.001;exitDx=0;exitDy=0;exitPerimeter=0;" parent="1" source="nDz2XcoAhpXYC0VE0fNE-22" target="nDz2XcoAhpXYC0VE0fNE-84" edge="1">
          <mxGeometry relative="1" as="geometry">
            <mxPoint x="695" y="-1050" as="sourcePoint" />
            <Array as="points">
              <mxPoint x="721" y="-1062" />
              <mxPoint x="720" y="-1062" />
              <mxPoint x="720" y="-1600" />
              <mxPoint x="638" y="-1600" />
            </Array>
            <mxPoint x="525" y="-1320" as="targetPoint" />
          </mxGeometry>
        </mxCell>
        <mxCell id="nDz2XcoAhpXYC0VE0fNE-88" value="&amp;nbsp;-contact&amp;nbsp;" style="edgeLabel;html=1;align=center;verticalAlign=middle;resizable=0;points=[];" parent="nDz2XcoAhpXYC0VE0fNE-87" vertex="1" connectable="0">
          <mxGeometry x="0.1256" y="3" relative="1" as="geometry">
            <mxPoint as="offset" />
          </mxGeometry>
        </mxCell>
        <mxCell id="Sas9jldElrnO39F_DOsJ-1" value="&lt;p style=&quot;margin: 0px ; margin-top: 4px ; text-align: center&quot;&gt;&lt;b&gt;NoGameState&lt;/b&gt;&lt;/p&gt;&lt;hr size=&quot;1&quot;&gt;&lt;p style=&quot;margin: 0px ; margin-left: 4px&quot;&gt;&lt;br&gt;&lt;/p&gt;&lt;hr size=&quot;1&quot;&gt;&lt;p style=&quot;margin: 0px ; margin-left: 4px&quot;&gt;&lt;br&gt;&lt;/p&gt;" style="verticalAlign=top;align=left;overflow=fill;fontSize=12;fontFamily=Helvetica;html=1;spacingLeft=0;spacingRight=0;spacing=2;" vertex="1" parent="1">
          <mxGeometry x="1680" y="-1214" width="110" height="100" as="geometry" />
        </mxCell>
      </root>
    </mxGraphModel>
  </diagram>
</mxfile>
